<svg width="1200" height="630" viewBox="0 0 1200 630" xmlns="http://www.w3.org/2000/svg">
  <defs>
    <linearGradient id="chrome-gradient" x1="0%" y1="0%" x2="0%" y2="100%">
      <stop offset="0%" style="stop-color:#ffffff"/>
      <stop offset="15%" style="stop-color:#e0e0e0"/>
      <stop offset="40%" style="stop-color:#808080"/>
      <stop offset="60%" style="stop-color:#606060"/>
      <stop offset="80%" style="stop-color:#909090"/>
      <stop offset="100%" style="stop-color:#b0b0b0"/>
    </linearGradient>
    <radialGradient id="bg-glow" cx="50%" cy="40%" r="60%">
      <stop offset="0%" style="stop-color:#1a1a1a"/>
      <stop offset="100%" style="stop-color:#000000"/>
    </radialGradient>
  </defs>

  <!-- Background -->
  <rect width="1200" height="630" fill="url(#bg-glow)"/>

  <!-- PRIV Logo centered -->
  <g transform="translate(440, 235)" fill="url(#chrome-gradient)">
    <path d="M0 0 L0 80 L12 80 L12 52 L30 52 C52 52 64 40 64 26 C64 12 52 0 30 0 Z M12 12 L28 12 C42 12 52 18 52 26 C52 34 42 40 28 40 L12 40 Z"/>
    <path d="M80 0 L80 80 L92 80 L92 52 L106 52 L132 80 L148 80 L118 48 C132 44 140 34 140 26 C140 12 128 0 106 0 Z M92 12 L104 12 C120 12 128 18 128 26 C128 34 120 40 104 40 L92 40 Z"/>
    <path d="M164 0 L164 80 L176 80 L176 0 Z"/>
    <path d="M160 -12 L180 -12 L180 -4 L160 -4 Z" opacity="0.6"/>
    <path d="M200 0 L232 80 L244 80 L276 0 L262 0 L238 60 L214 0 Z"/>
  </g>

  <!-- Tagline -->
  <text x="600" y="380" font-family="Georgia, serif" font-size="18" fill="#666666" text-anchor="middle" font-style="italic">Media Kit Templates</text>
</svg>
